<svg viewBox="0 0 600 480" xmlns="http://www.w3.org/2000/svg" aria-hidden="true">
  <g stroke="currentColor" fill="none" stroke-linecap="round" stroke-linejoin="round">
    <path d="M 140 340 C 125 220 215 165 305 162 C 395 159 480 200 490 315 C 495 360 420 378 305 380 C 195 382 145 372 140 340 Z" stroke-width="3"/>
    <path d="M 145 344 C 132 226 218 168 308 165 C 398 163 478 203 488 317 C 493 360 423 378 308 379" stroke-width="2"/>
    <path d="M 135 336 C 122 218 213 162 302 159 C 392 156 481 198 491 313" stroke-width="2.5"/>
    <path d="M 165 340 C 245 308 360 312 435 322 C 465 327 482 333 488 340" stroke-width="2.5"/>
    <path d="M 170 318 C 250 285 365 290 440 300 C 470 305 484 312 488 318" stroke-width="2"/>
    <path d="M 175 295 C 255 265 365 268 440 278 C 470 283 484 290 488 296" stroke-width="2.5"/>
    <path d="M 185 272 C 265 245 365 248 435 257 C 465 262 482 268 484 274" stroke-width="2"/>
    <path d="M 200 250 C 275 226 365 230 430 238 C 458 243 475 247 480 252" stroke-width="2.5"/>
    <path d="M 220 230 C 285 215 365 218 420 222 C 446 226 466 230 472 234" stroke-width="2"/>
    <path d="M 245 213 C 297 205 358 207 408 211 C 432 213 452 218 460 222" stroke-width="2.5"/>
    <path d="M 275 197 C 315 192 360 194 398 198 C 418 200 435 204 442 208" stroke-width="2"/>
    <path d="M 305 184 C 335 180 365 182 390 187 C 410 190 425 193 432 197" stroke-width="2.5"/>
    <path d="M 155 338 C 180 295 215 245 250 195" stroke-width="2"/>
    <path d="M 185 365 C 215 320 245 270 275 200" stroke-width="2.5"/>
    <path d="M 225 378 C 250 335 275 280 300 192" stroke-width="2"/>
    <path d="M 265 380 C 285 335 305 280 320 188" stroke-width="2.5"/>
    <path d="M 305 380 C 320 335 332 280 345 188" stroke-width="2"/>
    <path d="M 345 380 C 355 335 362 280 368 190" stroke-width="2.5"/>
    <path d="M 385 378 C 388 335 390 285 388 198" stroke-width="2"/>
    <path d="M 425 372 C 425 330 420 282 410 208" stroke-width="2.5"/>
    <path d="M 460 358 C 458 320 445 280 428 222" stroke-width="2"/>
    <path d="M 200 320 L 235 342" stroke-width="2"/>
    <path d="M 385 280 L 415 297" stroke-width="2"/>
    <path d="M 322 305 L 348 290" stroke-width="2"/>
    <path d="M 273 260 L 298 275" stroke-width="2.5"/>
    <path d="M 365 233 L 392 247" stroke-width="2"/>
    <path d="M 240 195 L 262 215" stroke-width="2"/>
    <line x1="222" y1="150" x2="200" y2="100" stroke-width="3"/>
    <line x1="268" y1="148" x2="260" y2="92" stroke-width="2.5"/>
    <line x1="312" y1="144" x2="318" y2="85" stroke-width="3"/>
    <line x1="358" y1="148" x2="368" y2="95" stroke-width="2.5"/>
    <line x1="403" y1="155" x2="425" y2="105" stroke-width="3"/>
    <line x1="445" y1="170" x2="478" y2="128" stroke-width="2.5"/>
    <line x1="170" y1="188" x2="125" y2="150" stroke-width="3"/>
    <line x1="148" y1="232" x2="100" y2="218" stroke-width="2.5"/>
    <line x1="480" y1="220" x2="525" y2="195" stroke-width="3"/>
    <line x1="495" y1="262" x2="545" y2="252" stroke-width="2.5"/>
    <line x1="118" y1="280" x2="72" y2="280" stroke-width="3"/>
    <line x1="120" y1="318" x2="78" y2="320" stroke-width="2.5"/>
    <line x1="498" y1="300" x2="545" y2="298" stroke-width="3"/>
    <line x1="495" y1="338" x2="540" y2="345" stroke-width="2.5"/>
    <line x1="150" y1="365" x2="115" y2="395" stroke-width="2.5"/>
    <line x1="488" y1="362" x2="525" y2="390" stroke-width="2.5"/>
  </g>
</svg>